<?xml version="1.0" encoding="UTF-8"?>
<!DOCTYPE svg PUBLIC "-//W3C//DTD SVG 1.1//EN" "http://www.w3.org/Graphics/SVG/1.1/DTD/svg11.dtd">
<svg xmlns="http://www.w3.org/2000/svg" version="1.1" width="202px" height="212px" style="shape-rendering:geometricPrecision; text-rendering:geometricPrecision; image-rendering:optimizeQuality; fill-rule:evenodd; clip-rule:evenodd" xmlns:xlink="http://www.w3.org/1999/xlink">
<g><path style="opacity:1" fill="#1068b4" d="M -0.5,-0.5 C 66.8333,-0.5 134.167,-0.5 201.5,-0.5C 201.5,70.1667 201.5,140.833 201.5,211.5C 134.167,211.5 66.8333,211.5 -0.5,211.5C -0.5,140.833 -0.5,70.1667 -0.5,-0.5 Z"/></g>
<g><path style="opacity:1" fill="#7baad5" d="M 100.5,6.5 C 98.2646,6.20528 96.2646,6.53862 94.5,7.5C 90.8019,7.55241 87.1352,7.88575 83.5,8.5C 85.4758,6.98912 87.8091,6.15579 90.5,6C 94.0267,5.1925 97.3601,5.35916 100.5,6.5 Z"/></g>
<g><path style="opacity:1" fill="#f6f9fc" d="M 94.5,7.5 C 96.1667,7.5 97.8333,7.5 99.5,7.5C 99.5,9.83333 99.5,12.1667 99.5,14.5C 96.9407,14.1984 94.6074,14.5318 92.5,15.5C 92.1583,16.3382 91.4916,16.6716 90.5,16.5C 87.3704,16.6997 84.3704,17.3664 81.5,18.5C 78.284,18.3455 75.6174,19.3455 73.5,21.5C 67.6688,24.5812 62.0021,27.9145 56.5,31.5C 55.9202,29.2512 54.5869,27.5846 52.5,26.5C 52.6871,23.3095 54.3538,21.3095 57.5,20.5C 59.0269,20.573 60.0269,19.9063 60.5,18.5C 61.2905,17.5987 62.2905,16.9321 63.5,16.5C 66.1573,16.0652 68.4907,15.0652 70.5,13.5C 70.8417,12.6618 71.5084,12.3284 72.5,12.5C 75.0177,11.7362 77.351,10.7362 79.5,9.5C 80.5676,8.56552 81.901,8.23219 83.5,8.5C 87.1352,7.88575 90.8019,7.55241 94.5,7.5 Z"/></g>
<g><path style="opacity:1" fill="#86b1d9" d="M 79.5,9.5 C 77.351,10.7362 75.0177,11.7362 72.5,12.5C 74.0897,10.179 76.4231,9.179 79.5,9.5 Z"/></g>
<g><path style="opacity:1" fill="#b4cfe7" d="M 94.5,7.5 C 96.2646,6.53862 98.2646,6.20528 100.5,6.5C 100.5,9.5 100.5,12.5 100.5,15.5C 97.8333,15.5 95.1667,15.5 92.5,15.5C 94.6074,14.5318 96.9407,14.1984 99.5,14.5C 99.5,12.1667 99.5,9.83333 99.5,7.5C 97.8333,7.5 96.1667,7.5 94.5,7.5 Z"/></g>
<g><path style="opacity:1" fill="#92b9dc" d="M 70.5,13.5 C 68.4907,15.0652 66.1573,16.0652 63.5,16.5C 65.1757,14.1663 67.509,13.1663 70.5,13.5 Z"/></g>
<g><path style="opacity:1" fill="#9dc1e0" d="M 60.5,18.5 C 60.0269,19.9063 59.0269,20.573 57.5,20.5C 57.9731,19.0937 58.9731,18.427 60.5,18.5 Z"/></g>
<g><path style="opacity:1" fill="#f6f9fc" d="M 91.5,19.5 C 94.1667,19.5 96.8333,19.5 99.5,19.5C 99.5,21.8333 99.5,24.1667 99.5,26.5C 97.2646,26.2053 95.2646,26.5386 93.5,27.5C 93.1667,27.5 92.8333,27.5 92.5,27.5C 89.0076,27.446 86.0076,28.446 83.5,30.5C 83.1667,30.5 82.8333,30.5 82.5,30.5C 79.9823,31.2638 77.649,32.2638 75.5,33.5C 70.5793,35.7562 66.5793,39.0895 63.5,43.5C 60.7573,45.2393 58.7573,47.5726 57.5,50.5C 56.6236,50.3691 55.9569,50.7025 55.5,51.5C 53.9441,55.0163 52.1107,58.3496 50,61.5C 49.1785,64.1168 48.6785,66.7835 48.5,69.5C 45.9046,78.808 45.9046,88.1413 48.5,97.5C 48.8333,98.8333 49.1667,100.167 49.5,101.5C 49.7549,103.967 50.7549,105.967 52.5,107.5C 52.9321,108.71 53.5987,109.71 54.5,110.5C 54.5,110.833 54.5,111.167 54.5,111.5C 54.427,113.027 55.0937,114.027 56.5,114.5C 58.969,117.144 61.3024,119.977 63.5,123C 66.0472,125.054 68.7139,126.887 71.5,128.5C 73.8876,131.09 76.8876,132.757 80.5,133.5C 80.9731,134.906 81.9731,135.573 83.5,135.5C 85.2161,135.629 86.8828,135.962 88.5,136.5C 90.3792,137.341 92.3792,137.675 94.5,137.5C 95.9187,138.451 97.5853,138.784 99.5,138.5C 99.5,141.167 99.5,143.833 99.5,146.5C 97.1667,146.5 94.8333,146.5 92.5,146.5C 92.3893,145.883 92.056,145.383 91.5,145C 88.854,144.503 86.1873,144.336 83.5,144.5C 80.1667,143.167 76.8333,141.833 73.5,140.5C 73.0269,139.094 72.0269,138.427 70.5,138.5C 68.6316,137.737 66.9649,136.737 65.5,135.5C 65.0269,134.094 64.0269,133.427 62.5,133.5C 60.8333,132.167 59.1667,130.833 57.5,129.5C 56.5,127.833 55.1667,126.5 53.5,125.5C 49.3039,119.765 45.6372,113.765 42.5,107.5C 42.554,104.008 41.554,101.008 39.5,98.5C 34.7598,78.5646 38.2598,60.2313 50,43.5C 51.3712,41.9586 52.8712,40.6253 54.5,39.5C 55.8333,38.8333 56.8333,37.8333 57.5,36.5C 57.8333,35.8333 58.1667,35.1667 58.5,34.5C 62.8601,30.9888 67.5268,27.9888 72.5,25.5C 75.9466,24.917 78.9466,23.5837 81.5,21.5C 84.7611,20.6222 88.0945,19.9555 91.5,19.5 Z"/></g>
<g><path style="opacity:1" fill="#9fc2e0" d="M 81.5,18.5 C 79.064,19.871 76.3973,20.871 73.5,21.5C 75.6174,19.3455 78.284,18.3455 81.5,18.5 Z"/></g>
<g><path style="opacity:1" fill="#b8d2e8" d="M 91.5,19.5 C 91.5,19.1667 91.5,18.8333 91.5,18.5C 94.5,18.5 97.5,18.5 100.5,18.5C 100.5,21.5 100.5,24.5 100.5,27.5C 98.1667,27.5 95.8333,27.5 93.5,27.5C 95.2646,26.5386 97.2646,26.2053 99.5,26.5C 99.5,24.1667 99.5,21.8333 99.5,19.5C 96.8333,19.5 94.1667,19.5 91.5,19.5 Z"/></g>
<g><path style="opacity:1" fill="#b1cde6" d="M 81.5,21.5 C 78.9466,23.5837 75.9466,24.917 72.5,25.5C 75.0534,23.4163 78.0534,22.083 81.5,21.5 Z"/></g>
<g><path style="opacity:1" fill="#5993c9" d="M 52.5,26.5 C 54.5869,27.5846 55.9202,29.2512 56.5,31.5C 54.4131,30.4154 53.0798,28.7488 52.5,26.5 Z"/></g>
<g><path style="opacity:1" fill="#3f81c1" d="M 90.5,16.5 C 89.7375,17.2679 88.7375,17.7679 87.5,18C 88.7932,18.49 90.1266,18.6567 91.5,18.5C 91.5,18.8333 91.5,19.1667 91.5,19.5C 88.0945,19.9555 84.7611,20.6222 81.5,21.5C 78.0534,22.083 75.0534,23.4163 72.5,25.5C 67.5268,27.9888 62.8601,30.9888 58.5,34.5C 58.2178,33.2223 57.5511,32.2223 56.5,31.5C 62.0021,27.9145 67.6688,24.5812 73.5,21.5C 76.3973,20.871 79.064,19.871 81.5,18.5C 84.3704,17.3664 87.3704,16.6997 90.5,16.5 Z"/></g>
<g><path style="opacity:1" fill="#a8c8e3" d="M 92.5,27.5 C 89.7458,28.9459 86.7458,29.9459 83.5,30.5C 86.0076,28.446 89.0076,27.446 92.5,27.5 Z"/></g>
<g><path style="opacity:1" fill="#357cbe" d="M 100.5,18.5 C 101.726,22.367 101.726,26.367 100.5,30.5C 100.167,30.5 99.8333,30.5 99.5,30.5C 97.5,30.5 95.5,30.5 93.5,30.5C 91.1016,30.2594 89.1016,30.9261 87.5,32.5C 86.8333,32.5 86.1667,32.5 85.5,32.5C 83.8212,32.7148 82.8212,32.0481 82.5,30.5C 82.8333,30.5 83.1667,30.5 83.5,30.5C 86.7458,29.9459 89.7458,28.9459 92.5,27.5C 92.8333,27.5 93.1667,27.5 93.5,27.5C 95.8333,27.5 98.1667,27.5 100.5,27.5C 100.5,24.5 100.5,21.5 100.5,18.5 Z"/></g>
<g><path style="opacity:1" fill="#679cce" d="M 82.5,30.5 C 82.8212,32.0481 83.8212,32.7148 85.5,32.5C 84.0697,33.5375 82.403,34.2041 80.5,34.5C 81.463,33.6365 81.463,32.9698 80.5,32.5C 78.9291,33.3094 77.2624,33.6427 75.5,33.5C 77.649,32.2638 79.9823,31.2638 82.5,30.5 Z"/></g>
<g><path style="opacity:1" fill="#aac9e4" d="M 93.5,30.5 C 91.8984,32.0739 89.8984,32.7406 87.5,32.5C 89.1016,30.9261 91.1016,30.2594 93.5,30.5 Z"/></g>
<g><path style="opacity:1" fill="#f6f9fc" d="M 93.5,30.5 C 95.5,30.5 97.5,30.5 99.5,30.5C 99.5,33.1667 99.5,35.8333 99.5,38.5C 98.209,38.2627 97.209,38.596 96.5,39.5C 94.7085,39.366 93.0418,39.6993 91.5,40.5C 88.284,40.3455 85.6174,41.3455 83.5,43.5C 79.5594,44.471 76.226,46.471 73.5,49.5C 72.8165,49.1373 72.1499,48.8039 71.5,48.5C 70.9744,46.7697 69.9744,45.4363 68.5,44.5C 69.1712,40.6372 71.5045,38.3039 75.5,37.5C 77.0269,37.573 78.0269,36.9063 78.5,35.5C 79.1667,35.1667 79.8333,34.8333 80.5,34.5C 82.403,34.2041 84.0697,33.5375 85.5,32.5C 86.1667,32.5 86.8333,32.5 87.5,32.5C 89.8984,32.7406 91.8984,32.0739 93.5,30.5 Z"/></g>
<g><path style="opacity:1" fill="#b5d0e8" d="M 99.5,30.5 C 99.8333,30.5 100.167,30.5 100.5,30.5C 100.5,33.5 100.5,36.5 100.5,39.5C 99.1667,39.5 97.8333,39.5 96.5,39.5C 97.209,38.596 98.209,38.2627 99.5,38.5C 99.5,35.8333 99.5,33.1667 99.5,30.5 Z"/></g>
<g><path style="opacity:1" fill="#b6d0e8" d="M 46.5,34.5 C 45.448,34.3505 44.448,34.5172 43.5,35C 42.4677,36.6268 41.1344,37.7934 39.5,38.5C 40.2279,36.2654 41.5612,34.4321 43.5,33C 44.9976,32.4153 45.9976,32.9153 46.5,34.5 Z"/></g>
<g><path style="opacity:1" fill="#f7fafc" d="M 46.5,34.5 C 46.8333,34.5 47.1667,34.5 47.5,34.5C 48.4756,35.8149 49.4756,37.1482 50.5,38.5C 45.1716,45.1481 41.1716,52.4815 38.5,60.5C 36.9261,62.1016 36.2594,64.1016 36.5,66.5C 35.5489,67.9187 35.2155,69.5853 35.5,71.5C 33.7868,72.6354 33.1201,74.302 33.5,76.5C 31.1667,76.5 28.8333,76.5 26.5,76.5C 26.5,75.5 26.5,74.5 26.5,73.5C 26.7038,70.4824 27.0371,67.4824 27.5,64.5C 29.0739,62.8984 29.7406,60.8984 29.5,58.5C 29.9707,56.4214 30.6373,54.4214 31.5,52.5C 33.4484,50.6796 34.4484,48.3462 34.5,45.5C 35.9213,42.9906 37.5879,40.6572 39.5,38.5C 41.1344,37.7934 42.4677,36.6268 43.5,35C 44.448,34.5172 45.448,34.3505 46.5,34.5 Z"/></g>
<g><path style="opacity:1" fill="#4183c1" d="M 80.5,34.5 C 79.8333,34.8333 79.1667,35.1667 78.5,35.5C 76.9731,35.427 75.9731,36.0937 75.5,37.5C 71.5045,38.3039 69.1712,40.6372 68.5,44.5C 67.2652,44.2786 66.2652,43.6119 65.5,42.5C 64.8165,42.8627 64.1499,43.1961 63.5,43.5C 66.5793,39.0895 70.5793,35.7562 75.5,33.5C 77.2624,33.6427 78.9291,33.3094 80.5,32.5C 81.463,32.9698 81.463,33.6365 80.5,34.5 Z"/></g>
<g><path style="opacity:1" fill="#a1c3e1" d="M 78.5,35.5 C 78.0269,36.9063 77.0269,37.573 75.5,37.5C 75.9731,36.0937 76.9731,35.427 78.5,35.5 Z"/></g>
<g><path style="opacity:1" fill="#98bdde" d="M 57.5,36.5 C 56.8333,37.8333 55.8333,38.8333 54.5,39.5C 54.5,39.1667 54.5,38.8333 54.5,38.5C 54.9731,37.0937 55.9731,36.427 57.5,36.5 Z"/></g>
<g><path style="opacity:1" fill="#4f8fc7" d="M 96.5,39.5 C 96.3893,40.1174 96.056,40.6174 95.5,41C 97.3817,41.1981 99.0484,41.6981 100.5,42.5C 100.167,42.5 99.8333,42.5 99.5,42.5C 96.7628,42.4013 94.0961,42.7347 91.5,43.5C 92.5063,42.6043 92.5063,41.9377 91.5,41.5C 91.5,41.1667 91.5,40.8333 91.5,40.5C 93.0418,39.6993 94.7085,39.366 96.5,39.5 Z"/></g>
<g><path style="opacity:1" fill="#2471b8" d="M 68.5,44.5 C 69.9744,45.4363 70.9744,46.7697 71.5,48.5C 72.1834,50.1765 73.5168,50.8432 75.5,50.5C 75.2627,51.791 75.596,52.791 76.5,53.5C 78.1942,54.5274 79.5275,55.8608 80.5,57.5C 80.3691,58.3764 80.7025,59.0431 81.5,59.5C 82.6868,58.3473 83.6868,58.3473 84.5,59.5C 76.9829,65.4682 77.9829,69.1349 87.5,70.5C 87.1193,71.9311 86.1193,72.7645 84.5,73C 85.985,74.7565 85.6516,75.9232 83.5,76.5C 83.1631,72.6667 80.9964,70.6667 77,70.5C 75.9889,71.0556 75.1556,71.7222 74.5,72.5C 73.6618,72.1583 73.3284,71.4916 73.5,70.5C 74.4178,67.4965 75.7511,64.6632 77.5,62C 75.6499,59.9824 73.6499,58.1491 71.5,56.5C 69.5414,57.7481 68.0414,59.4148 67,61.5C 65.6191,65.6542 64.1191,69.6542 62.5,73.5C 61.5269,75.9479 61.1936,78.6146 61.5,81.5C 65.1064,81.7892 68.6064,81.4558 72,80.5C 72.765,82.0657 72.5983,83.3991 71.5,84.5C 67.9581,84.1872 64.6248,84.5206 61.5,85.5C 61.9629,88.4824 62.2962,91.4824 62.5,94.5C 62.6716,95.4916 62.3382,96.1583 61.5,96.5C 61.2041,94.597 60.5375,92.9303 59.5,91.5C 59.5,89.5 59.5,87.5 59.5,85.5C 56.1667,85.5 52.8333,85.5 49.5,85.5C 49.5,87.5 49.5,89.5 49.5,91.5C 49.8511,93.8695 50.0178,96.2028 50,98.5C 49.6174,97.944 49.1174,97.6107 48.5,97.5C 45.9046,88.1413 45.9046,78.808 48.5,69.5C 49.9665,66.7417 50.6332,67.075 50.5,70.5C 50.5,70.8333 50.5,71.1667 50.5,71.5C 49.5269,73.9479 49.1936,76.6146 49.5,79.5C 52.8333,79.5 56.1667,79.5 59.5,79.5C 59.7038,76.4824 60.0371,73.4824 60.5,70.5C 61.5741,64.3519 64.2407,59.0185 68.5,54.5C 66.8333,52.1667 64.8333,50.1667 62.5,48.5C 60.5986,50.0063 58.9319,51.6729 57.5,53.5C 56.375,52.6522 56.375,51.6522 57.5,50.5C 58.7573,47.5726 60.7573,45.2393 63.5,43.5C 64.1499,43.1961 64.8165,42.8627 65.5,42.5C 66.2652,43.6119 67.2652,44.2786 68.5,44.5 Z"/></g>
<g><path style="opacity:1" fill="#8ab4da" d="M 91.5,40.5 C 91.5,40.8333 91.5,41.1667 91.5,41.5C 88.779,41.9628 86.1123,42.6295 83.5,43.5C 85.6174,41.3455 88.284,40.3455 91.5,40.5 Z"/></g>
<g><path style="opacity:1" fill="#2574ba" d="M 91.5,41.5 C 92.5063,41.9377 92.5063,42.6043 91.5,43.5C 88.779,43.9628 86.1123,44.6295 83.5,45.5C 83.5,44.8333 83.5,44.1667 83.5,43.5C 86.1123,42.6295 88.779,41.9628 91.5,41.5 Z"/></g>
<g><path style="opacity:1" fill="#f4f7fb" d="M 99.5,42.5 C 99.5,45.1667 99.5,47.8333 99.5,50.5C 97.901,50.2322 96.5676,50.5655 95.5,51.5C 92.6733,52.1084 90.0067,53.1084 87.5,54.5C 85.9731,54.427 84.9731,55.0937 84.5,56.5C 83.2921,57.2341 81.9587,57.5674 80.5,57.5C 79.5275,55.8608 78.1942,54.5274 76.5,53.5C 76.3505,52.448 76.5172,51.448 77,50.5C 79.352,48.9697 81.5187,47.3031 83.5,45.5C 86.1123,44.6295 88.779,43.9628 91.5,43.5C 94.0961,42.7347 96.7628,42.4013 99.5,42.5 Z"/></g>
<g><path style="opacity:1" fill="#b2cfe7" d="M 99.5,42.5 C 99.8333,42.5 100.167,42.5 100.5,42.5C 100.5,45.5 100.5,48.5 100.5,51.5C 98.8333,51.5 97.1667,51.5 95.5,51.5C 96.5676,50.5655 97.901,50.2322 99.5,50.5C 99.5,47.8333 99.5,45.1667 99.5,42.5 Z"/></g>
<g><path style="opacity:1" fill="#4686c3" d="M 83.5,43.5 C 83.5,44.1667 83.5,44.8333 83.5,45.5C 81.5187,47.3031 79.352,48.9697 77,50.5C 76.5172,51.448 76.3505,52.448 76.5,53.5C 75.596,52.791 75.2627,51.791 75.5,50.5C 73.5168,50.8432 72.1834,50.1765 71.5,48.5C 72.1499,48.8039 72.8165,49.1373 73.5,49.5C 76.226,46.471 79.5594,44.471 83.5,43.5 Z"/></g>
<g><path style="opacity:1" fill="#86b1d8" d="M 34.5,45.5 C 34.4484,48.3462 33.4484,50.6796 31.5,52.5C 31.9348,49.8427 32.9348,47.5093 34.5,45.5 Z"/></g>
<g><path style="opacity:1" fill="#82b1d8" d="M 60.5,70.5 C 58.9605,72.8383 58.2938,75.5049 58.5,78.5C 55.8333,78.5 53.1667,78.5 50.5,78.5C 50.5,76.1667 50.5,73.8333 50.5,71.5C 50.5,71.1667 50.5,70.8333 50.5,70.5C 51.9856,64.523 54.3189,58.8563 57.5,53.5C 58.9319,51.6729 60.5986,50.0063 62.5,48.5C 64.8333,50.1667 66.8333,52.1667 68.5,54.5C 64.2407,59.0185 61.5741,64.3519 60.5,70.5 Z"/></g>
<g><path style="opacity:1" fill="#91b9dc" d="M 87.5,54.5 C 87.0269,55.9063 86.0269,56.573 84.5,56.5C 84.9731,55.0937 85.9731,54.427 87.5,54.5 Z"/></g>
<g><path style="opacity:1" fill="#80afd7" d="M 91.5,66.5 C 89.2901,66.894 87.9568,68.2273 87.5,70.5C 77.9829,69.1349 76.9829,65.4682 84.5,59.5C 89.4663,56.6221 94.7997,54.9554 100.5,54.5C 100.5,57.5 100.5,60.5 100.5,63.5C 96.8453,62.925 93.8453,63.925 91.5,66.5 Z"/></g>
<g><path style="opacity:1" fill="#f7f9fc" d="M 114.5,55.5 C 114.833,55.5 115.167,55.5 115.5,55.5C 118.627,56.5808 121.96,57.2474 125.5,57.5C 127.979,59.5675 130.979,60.9009 134.5,61.5C 135.391,62.1098 136.391,62.4431 137.5,62.5C 137.973,63.9063 138.973,64.573 140.5,64.5C 141.965,65.7368 143.632,66.7368 145.5,67.5C 145.973,68.9063 146.973,69.573 148.5,69.5C 149.694,70.2719 150.694,71.2719 151.5,72.5C 151.973,73.9063 152.973,74.573 154.5,74.5C 156.167,76.5 157.833,78.5 159.5,80.5C 160.08,82.7488 161.413,84.4154 163.5,85.5C 164.167,85.5 164.5,85.8333 164.5,86.5C 164.443,87.609 164.11,88.609 163.5,89.5C 161.596,89.7376 160.262,90.7376 159.5,92.5C 153.203,86.2091 146.536,80.2091 139.5,74.5C 139.027,73.0937 138.027,72.427 136.5,72.5C 135.329,71.6554 133.995,70.9887 132.5,70.5C 130.824,68.1663 128.491,67.1663 125.5,67.5C 120.833,66.1667 116.167,64.8333 111.5,63.5C 109.393,62.5318 107.059,62.1984 104.5,62.5C 104.5,60.1667 104.5,57.8333 104.5,55.5C 107.833,55.5 111.167,55.5 114.5,55.5 Z"/></g>
<g><path style="opacity:1" fill="#6096cb" d="M 115.5,55.5 C 118.187,55.3359 120.854,55.5026 123.5,56C 124.416,56.2784 125.082,56.7784 125.5,57.5C 121.96,57.2474 118.627,56.5808 115.5,55.5 Z"/></g>
<g><path style="opacity:1" fill="#5393c9" d="M 110.5,54.5 C 108.167,54.5 105.833,54.5 103.5,54.5C 103.5,57.1667 103.5,59.8333 103.5,62.5C 102.523,59.7131 102.19,56.7131 102.5,53.5C 105.385,53.1936 108.052,53.5269 110.5,54.5 Z"/></g>
<g><path style="opacity:1" fill="#b1cde6" d="M 110.5,54.5 C 112.099,54.2322 113.432,54.5655 114.5,55.5C 111.167,55.5 107.833,55.5 104.5,55.5C 104.5,57.8333 104.5,60.1667 104.5,62.5C 107.059,62.1984 109.393,62.5318 111.5,63.5C 109.167,63.5 106.833,63.5 104.5,63.5C 103.833,63.5 103.5,63.1667 103.5,62.5C 103.5,59.8333 103.5,57.1667 103.5,54.5C 105.833,54.5 108.167,54.5 110.5,54.5 Z"/></g>
<g><path style="opacity:1" fill="#397ebf" d="M 100.5,42.5 C 101.479,45.6248 101.813,48.9581 101.5,52.5C 97.5,52.8333 97.5,53.1667 101.5,53.5C 101.5,57.1667 101.5,60.8333 101.5,64.5C 98.0314,64.5465 94.698,65.2132 91.5,66.5C 93.8453,63.925 96.8453,62.925 100.5,63.5C 100.5,60.5 100.5,57.5 100.5,54.5C 94.7997,54.9554 89.4663,56.6221 84.5,59.5C 83.6868,58.3473 82.6868,58.3473 81.5,59.5C 80.7025,59.0431 80.3691,58.3764 80.5,57.5C 81.9587,57.5674 83.2921,57.2341 84.5,56.5C 86.0269,56.573 87.0269,55.9063 87.5,54.5C 90.0067,53.1084 92.6733,52.1084 95.5,51.5C 97.1667,51.5 98.8333,51.5 100.5,51.5C 100.5,48.5 100.5,45.5 100.5,42.5 Z"/></g>
<g><path style="opacity:1" fill="#82b0d8" d="M 73.5,70.5 C 72.8826,70.6107 72.3826,70.944 72,71.5C 71.433,74.1677 70.933,76.8344 70.5,79.5C 67.8333,79.5 65.1667,79.5 62.5,79.5C 62.5,77.5 62.5,75.5 62.5,73.5C 64.1191,69.6542 65.6191,65.6542 67,61.5C 68.0414,59.4148 69.5414,57.7481 71.5,56.5C 73.6499,58.1491 75.6499,59.9824 77.5,62C 75.7511,64.6632 74.4178,67.4965 73.5,70.5 Z"/></g>
<g><path style="opacity:1" fill="#94badd" d="M 125.5,57.5 C 128.947,58.083 131.947,59.4163 134.5,61.5C 130.979,60.9009 127.979,59.5675 125.5,57.5 Z"/></g>
<g><path style="opacity:1" fill="#387dbe" d="M 57.5,50.5 C 56.375,51.6522 56.375,52.6522 57.5,53.5C 54.3189,58.8563 51.9856,64.523 50.5,70.5C 50.6332,67.075 49.9665,66.7417 48.5,69.5C 48.6785,66.7835 49.1785,64.1168 50,61.5C 52.1107,58.3496 53.9441,55.0163 55.5,51.5C 55.9569,50.7025 56.6236,50.3691 57.5,50.5 Z"/></g>
<g><path style="opacity:1" fill="#92badd" d="M 29.5,58.5 C 29.7406,60.8984 29.0739,62.8984 27.5,64.5C 27.2594,62.1016 27.9261,60.1016 29.5,58.5 Z"/></g>
<g><path style="opacity:1" fill="#78a9d4" d="M 137.5,62.5 C 139.027,62.427 140.027,63.0937 140.5,64.5C 138.973,64.573 137.973,63.9063 137.5,62.5 Z"/></g>
<g><path style="opacity:1" fill="#77a8d4" d="M 38.5,60.5 C 38.7406,62.8984 38.0739,64.8984 36.5,66.5C 36.2594,64.1016 36.9261,62.1016 38.5,60.5 Z"/></g>
<g><path style="opacity:1" fill="#82b1d8" d="M 154.5,95.5 C 152.511,96.4814 150.511,97.4814 148.5,98.5C 144.692,95.0718 141.025,91.4051 137.5,87.5C 136.147,85.2621 134.147,83.9287 131.5,83.5C 123.599,77.8136 114.599,74.9803 104.5,75C 103.556,72.2809 103.223,69.4475 103.5,66.5C 123.826,67.6705 140.659,76.0039 154,91.5C 154.49,92.7932 154.657,94.1266 154.5,95.5 Z"/></g>
<g><path style="opacity:1" fill="#a5c5e2" d="M 125.5,67.5 C 128.491,67.1663 130.824,68.1663 132.5,70.5C 129.843,70.0652 127.509,69.0652 125.5,67.5 Z"/></g>
<g><path style="opacity:1" fill="#6ba0d0" d="M 145.5,67.5 C 147.027,67.427 148.027,68.0937 148.5,69.5C 146.973,69.573 145.973,68.9063 145.5,67.5 Z"/></g>
<g><path style="opacity:1" fill="#357cbe" d="M 104.5,63.5 C 106.833,63.5 109.167,63.5 111.5,63.5C 116.167,64.8333 120.833,66.1667 125.5,67.5C 127.509,69.0652 129.843,70.0652 132.5,70.5C 133.995,70.9887 135.329,71.6554 136.5,72.5C 136.973,73.9063 137.973,74.573 139.5,74.5C 146.536,80.2091 153.203,86.2091 159.5,92.5C 157.955,93.6396 156.288,94.6396 154.5,95.5C 154.657,94.1266 154.49,92.7932 154,91.5C 140.659,76.0039 123.826,67.6705 103.5,66.5C 103.223,69.4475 103.556,72.2809 104.5,75C 114.599,74.9803 123.599,77.8136 131.5,83.5C 131.179,85.0481 130.179,85.7148 128.5,85.5C 121.002,80.5611 112.669,78.2278 103.5,78.5C 103.264,81.6085 103.597,84.6085 104.5,87.5C 102.537,80.5762 101.87,73.2428 102.5,65.5C 104.857,65.6633 107.19,65.4966 109.5,65C 107.618,64.8019 105.952,64.3019 104.5,63.5 Z"/></g>
<g><path style="opacity:1" fill="#80afd7" d="M 83.5,76.5 C 82.2233,80.7823 82.2233,85.1157 83.5,89.5C 83.0576,90.7387 82.3909,91.7387 81.5,92.5C 79.6854,93.6298 77.6854,94.2964 75.5,94.5C 73.3959,87.2497 73.0626,79.9164 74.5,72.5C 75.1556,71.7222 75.9889,71.0556 77,70.5C 80.9964,70.6667 83.1631,72.6667 83.5,76.5 Z"/></g>
<g><path style="opacity:1" fill="#77a8d4" d="M 151.5,72.5 C 153.027,72.427 154.027,73.0937 154.5,74.5C 152.973,74.573 151.973,73.9063 151.5,72.5 Z"/></g>
<g><path style="opacity:1" fill="#9fc2e1" d="M 136.5,72.5 C 138.027,72.427 139.027,73.0937 139.5,74.5C 137.973,74.573 136.973,73.9063 136.5,72.5 Z"/></g>
<g><path style="opacity:1" fill="#c9ddee" d="M 35.5,71.5 C 35.7947,73.7354 35.4614,75.7354 34.5,77.5C 31.6146,77.8064 28.9479,77.4731 26.5,76.5C 28.8333,76.5 31.1667,76.5 33.5,76.5C 33.1201,74.302 33.7868,72.6354 35.5,71.5 Z"/></g>
<g><path style="opacity:1" fill="#76a8d4" d="M 26.5,73.5 C 26.5,74.5 26.5,75.5 26.5,76.5C 28.9479,77.4731 31.6146,77.8064 34.5,77.5C 34.5,77.8333 34.5,78.1667 34.5,78.5C 31.5,78.5 28.5,78.5 25.5,78.5C 25.2155,76.5853 25.5489,74.9187 26.5,73.5 Z"/></g>
<g><path style="opacity:1" fill="#5292c9" d="M 60.5,70.5 C 60.0371,73.4824 59.7038,76.4824 59.5,79.5C 56.1667,79.5 52.8333,79.5 49.5,79.5C 49.1936,76.6146 49.5269,73.9479 50.5,71.5C 50.5,73.8333 50.5,76.1667 50.5,78.5C 53.1667,78.5 55.8333,78.5 58.5,78.5C 58.2938,75.5049 58.9605,72.8383 60.5,70.5 Z"/></g>
<g><path style="opacity:1" fill="#f0f5fa" d="M 128.5,85.5 C 129.514,86.6737 130.847,87.3404 132.5,87.5C 136.964,91.1564 141.131,95.1564 145,99.5C 145.667,100.167 145.667,100.833 145,101.5C 143.482,102.163 142.315,103.163 141.5,104.5C 140.833,104.833 140.167,105.167 139.5,105.5C 138.209,105.737 137.209,105.404 136.5,104.5C 136.573,102.973 135.906,101.973 134.5,101.5C 133.5,100.833 132.5,100.167 131.5,99.5C 126.491,94.3235 120.491,90.6568 113.5,88.5C 110.482,88.2962 107.482,87.9629 104.5,87.5C 103.597,84.6085 103.264,81.6085 103.5,78.5C 112.669,78.2278 121.002,80.5611 128.5,85.5 Z"/></g>
<g><path style="opacity:1" fill="#b1cce6" d="M 159.5,80.5 C 161.587,81.5846 162.92,83.2512 163.5,85.5C 161.413,84.4154 160.08,82.7488 159.5,80.5 Z"/></g>
<g><path style="opacity:1" fill="#7cacd6" d="M 61.5,85.5 C 64.6248,84.5206 67.9581,84.1872 71.5,84.5C 71.5,85.8333 71.5,87.1667 71.5,88.5C 70.596,87.791 70.2627,86.791 70.5,85.5C 67.5,85.5 64.5,85.5 61.5,85.5 Z"/></g>
<g><path style="opacity:1" fill="#5892c8" d="M 131.5,83.5 C 134.147,83.9287 136.147,85.2621 137.5,87.5C 135.956,87.2969 134.622,86.6302 133.5,85.5C 132.702,85.9569 132.369,86.6236 132.5,87.5C 130.847,87.3404 129.514,86.6737 128.5,85.5C 130.179,85.7148 131.179,85.0481 131.5,83.5 Z"/></g>
<g><path style="opacity:1" fill="#5a96cb" d="M 34.5,87.5 C 31.8333,87.5 29.1667,87.5 26.5,87.5C 26.5,90.1667 26.5,92.8333 26.5,95.5C 25.5233,92.7131 25.19,89.7131 25.5,86.5C 28.7131,86.19 31.7131,86.5233 34.5,87.5 Z"/></g>
<g><path style="opacity:1" fill="#f7f9fc" d="M 59.5,91.5 C 59.59,93.6963 59.9233,95.863 60.5,98C 60.6842,99.3756 61.3509,100.209 62.5,100.5C 62.5,100.833 62.5,101.167 62.5,101.5C 62.427,103.027 63.0937,104.027 64.5,104.5C 65.9399,106.535 67.2732,108.702 68.5,111C 66.8551,112.645 65.1884,114.312 63.5,116C 62.5509,116.617 61.7175,116.451 61,115.5C 59.2765,113.283 57.7765,110.95 56.5,108.5C 56.2503,106.326 55.2503,104.659 53.5,103.5C 53.4431,102.391 53.1098,101.391 52.5,100.5C 51.8505,98.5648 51.5172,96.5648 51.5,94.5C 51.1667,91.8333 50.8333,89.1667 50.5,86.5C 53.1667,86.5 55.8333,86.5 58.5,86.5C 58.2155,88.4147 58.5489,90.0813 59.5,91.5 Z"/></g>
<g><path style="opacity:1" fill="#f1f6fa" d="M 61.5,85.5 C 64.5,85.5 67.5,85.5 70.5,85.5C 70.2627,86.791 70.596,87.791 71.5,88.5C 71.5,89.5 71.5,90.5 71.5,91.5C 71.7549,93.9674 72.7549,95.9674 74.5,97.5C 75.3679,99.4021 76.3679,101.235 77.5,103C 75.6708,104.995 73.6708,106.828 71.5,108.5C 67.4736,104.436 64.4736,99.7693 62.5,94.5C 62.2962,91.4824 61.9629,88.4824 61.5,85.5 Z"/></g>
<g><path style="opacity:1" fill="#f4f7fb" d="M 34.5,87.5 C 34.8333,87.5 35.1667,87.5 35.5,87.5C 35.953,99.0712 39.2863,109.738 45.5,119.5C 45.427,121.027 46.0937,122.027 47.5,122.5C 49.3465,124.03 50.3465,126.03 50.5,128.5C 48.2512,129.08 46.5846,130.413 45.5,132.5C 42.8544,130.521 40.5211,128.188 38.5,125.5C 38.573,123.973 37.9063,122.973 36.5,122.5C 35.8333,121.167 35.1667,119.833 34.5,118.5C 34.2451,116.033 33.2451,114.033 31.5,112.5C 31.1667,111.167 30.8333,109.833 30.5,108.5C 30.0652,105.843 29.0652,103.509 27.5,101.5C 27.4828,99.4352 27.1495,97.4352 26.5,95.5C 26.5,92.8333 26.5,90.1667 26.5,87.5C 29.1667,87.5 31.8333,87.5 34.5,87.5 Z"/></g>
<g><path style="opacity:1" fill="#2e78bc" d="M 137.5,87.5 C 141.025,91.4051 144.692,95.0718 148.5,98.5C 150.511,97.4814 152.511,96.4814 154.5,95.5C 153.71,96.7942 152.71,97.9609 151.5,99C 148.26,101.091 144.926,102.924 141.5,104.5C 142.315,103.163 143.482,102.163 145,101.5C 145.667,100.833 145.667,100.167 145,99.5C 141.131,95.1564 136.964,91.1564 132.5,87.5C 132.369,86.6236 132.702,85.9569 133.5,85.5C 134.622,86.6302 135.956,87.2969 137.5,87.5 Z"/></g>
<g><path style="opacity:1" fill="#689ecf" d="M 164.5,86.5 C 165.885,87.9473 165.552,88.9473 163.5,89.5C 164.11,88.609 164.443,87.609 164.5,86.5 Z"/></g>
<g><path style="opacity:1" fill="#4083c1" d="M 47.5,34.5 C 49.8333,35.8333 52.1667,37.1667 54.5,38.5C 54.5,38.8333 54.5,39.1667 54.5,39.5C 52.8712,40.6253 51.3712,41.9586 50,43.5C 38.2598,60.2313 34.7598,78.5646 39.5,98.5C 40.0541,101.746 41.0541,104.746 42.5,107.5C 45.6372,113.765 49.3039,119.765 53.5,125.5C 52.1001,126.1 51.1001,127.1 50.5,128.5C 50.3465,126.03 49.3465,124.03 47.5,122.5C 47.573,120.973 46.9063,119.973 45.5,119.5C 39.2863,109.738 35.953,99.0712 35.5,87.5C 36.1582,86.2067 36.4915,84.7067 36.5,83C 36.4313,81.0145 35.7647,79.5145 34.5,78.5C 34.5,78.1667 34.5,77.8333 34.5,77.5C 35.4614,75.7354 35.7947,73.7354 35.5,71.5C 35.2155,69.5853 35.5489,67.9187 36.5,66.5C 38.0739,64.8984 38.7406,62.8984 38.5,60.5C 41.1716,52.4815 45.1716,45.1481 50.5,38.5C 49.4756,37.1482 48.4756,35.8149 47.5,34.5 Z"/></g>
<g><path style="opacity:1" fill="#96bcde" d="M 59.5,91.5 C 58.5489,90.0813 58.2155,88.4147 58.5,86.5C 55.8333,86.5 53.1667,86.5 50.5,86.5C 50.8333,89.1667 51.1667,91.8333 51.5,94.5C 50.8333,93.5 50.1667,92.5 49.5,91.5C 49.5,89.5 49.5,87.5 49.5,85.5C 52.8333,85.5 56.1667,85.5 59.5,85.5C 59.5,87.5 59.5,89.5 59.5,91.5 Z"/></g>
<g><path style="opacity:1" fill="#679dce" d="M 163.5,89.5 C 162.738,91.2624 161.404,92.2624 159.5,92.5C 160.262,90.7376 161.596,89.7376 163.5,89.5 Z"/></g>
<g><path style="opacity:1" fill="#5392c9" d="M 109.5,90.5 C 107.5,90.5 105.5,90.5 103.5,90.5C 103.194,93.3854 103.527,96.0521 104.5,98.5C 105.5,99.1667 106.5,99.8333 107.5,100.5C 105.856,100.714 104.356,100.38 103,99.5C 102.502,96.1832 102.335,92.8499 102.5,89.5C 105.059,89.1984 107.393,89.5318 109.5,90.5 Z"/></g>
<g><path style="opacity:1" fill="#b7d2e8" d="M 109.5,90.5 C 109.5,90.8333 109.5,91.1667 109.5,91.5C 107.833,91.5 106.167,91.5 104.5,91.5C 104.5,93.8333 104.5,96.1667 104.5,98.5C 103.527,96.0521 103.194,93.3854 103.5,90.5C 105.5,90.5 107.5,90.5 109.5,90.5 Z"/></g>
<g><path style="opacity:1" fill="#f7fafc" d="M 109.5,91.5 C 112.539,92.01 115.539,92.6766 118.5,93.5C 120.033,95.2451 122.033,96.2451 124.5,96.5C 126.69,97.3745 127.69,99.0411 127.5,101.5C 125.612,102.94 123.945,104.606 122.5,106.5C 121.261,106.058 120.261,105.391 119.5,104.5C 119.027,103.094 118.027,102.427 116.5,102.5C 115.167,102.167 113.833,101.833 112.5,101.5C 110.383,99.3455 107.716,98.3455 104.5,98.5C 104.5,96.1667 104.5,93.8333 104.5,91.5C 106.167,91.5 107.833,91.5 109.5,91.5 Z"/></g>
<g><path style="opacity:1" fill="#76a6d3" d="M 118.5,93.5 C 120.967,93.7549 122.967,94.7549 124.5,96.5C 122.033,96.2451 120.033,95.2451 118.5,93.5 Z"/></g>
<g><path style="opacity:1" fill="#4384c2" d="M 113.5,88.5 C 120.491,90.6568 126.491,94.3235 131.5,99.5C 129.801,99.5271 128.467,100.194 127.5,101.5C 127.69,99.0411 126.69,97.3745 124.5,96.5C 122.967,94.7549 120.967,93.7549 118.5,93.5C 115.539,92.6766 112.539,92.01 109.5,91.5C 109.5,91.1667 109.5,90.8333 109.5,90.5C 112.176,91.0081 114.843,91.1747 117.5,91C 115.68,90.7996 114.347,89.9663 113.5,88.5 Z"/></g>
<g><path style="opacity:1" fill="#92b9dc" d="M 71.5,91.5 C 73.2451,93.0326 74.2451,95.0326 74.5,97.5C 72.7549,95.9674 71.7549,93.9674 71.5,91.5 Z"/></g>
<g><path style="opacity:1" fill="#80afd7" d="M 100.5,101.5 C 100.5,104.5 100.5,107.5 100.5,110.5C 97.8127,110.664 95.146,110.497 92.5,110C 90.1358,108.038 87.4691,106.538 84.5,105.5C 82.6278,103.465 80.9611,101.298 79.5,99C 79.9783,97.6974 80.645,96.5307 81.5,95.5C 83.0683,94.5269 84.735,94.3603 86.5,95C 90.0501,99.6088 94.7168,101.776 100.5,101.5 Z"/></g>
<g><path style="opacity:1" fill="#5592c9" d="M 49.5,91.5 C 50.1667,92.5 50.8333,93.5 51.5,94.5C 51.5172,96.5648 51.8505,98.5648 52.5,100.5C 51.0755,98.9689 50.4088,99.3023 50.5,101.5C 50.1667,101.5 49.8333,101.5 49.5,101.5C 49.1667,100.167 48.8333,98.8333 48.5,97.5C 49.1174,97.6107 49.6174,97.944 50,98.5C 50.0178,96.2028 49.8511,93.8695 49.5,91.5 Z"/></g>
<g><path style="opacity:1" fill="#81b0d8" d="M 166.5,162.5 C 165.286,161.374 164.286,160.041 163.5,158.5C 171.431,139.193 171.431,119.859 163.5,100.5C 165.857,97.8822 168.691,97.2155 172,98.5C 178.516,113.267 180.183,128.6 177,144.5C 175.154,150.85 173.321,157.184 171.5,163.5C 169.585,163.784 167.919,163.451 166.5,162.5 Z"/></g>
<g><path style="opacity:1" fill="#b6d0e8" d="M 59.5,91.5 C 60.5375,92.9303 61.2041,94.597 61.5,96.5C 61.8333,97.8333 62.1667,99.1667 62.5,100.5C 61.3509,100.209 60.6842,99.3756 60.5,98C 59.9233,95.863 59.59,93.6963 59.5,91.5 Z"/></g>
<g><path style="opacity:1" fill="#a8c7e3" d="M 104.5,98.5 C 107.716,98.3455 110.383,99.3455 112.5,101.5C 112.167,101.5 111.833,101.5 111.5,101.5C 110.292,100.766 108.959,100.433 107.5,100.5C 106.5,99.8333 105.5,99.1667 104.5,98.5 Z"/></g>
<g><path style="opacity:1" fill="#2a77bb" d="M 52.5,100.5 C 53.1098,101.391 53.4431,102.391 53.5,103.5C 53.5394,104.583 53.8728,105.583 54.5,106.5C 54.0431,107.298 53.3764,107.631 52.5,107.5C 52.0293,105.421 51.3627,103.421 50.5,101.5C 50.4088,99.3023 51.0755,98.9689 52.5,100.5 Z"/></g>
<g><path style="opacity:1" fill="#2d77bb" d="M 73.5,70.5 C 73.3284,71.4916 73.6618,72.1583 74.5,72.5C 73.0626,79.9164 73.3959,87.2497 75.5,94.5C 77.6854,94.2964 79.6854,93.6298 81.5,92.5C 81.0472,93.4584 80.3805,94.2917 79.5,95C 80.0944,95.4643 80.7611,95.631 81.5,95.5C 80.645,96.5307 79.9783,97.6974 79.5,99C 80.9611,101.298 82.6278,103.465 84.5,105.5C 87.4691,106.538 90.1358,108.038 92.5,110C 95.146,110.497 97.8127,110.664 100.5,110.5C 100.5,107.5 100.5,104.5 100.5,101.5C 101.726,105.367 101.726,109.367 100.5,113.5C 98.8333,113.5 97.1667,113.5 95.5,113.5C 94.0697,112.463 92.403,111.796 90.5,111.5C 88.1815,111.008 86.1815,110.008 84.5,108.5C 83.4617,106.481 82.1284,106.147 80.5,107.5C 79.8333,107.5 79.5,107.833 79.5,108.5C 77.648,109.52 76.3147,111.02 75.5,113C 75.8361,114.03 76.5028,114.53 77.5,114.5C 79.8089,116.987 82.4756,118.987 85.5,120.5C 84.791,121.404 83.791,121.737 82.5,121.5C 82.0269,120.094 81.0269,119.427 79.5,119.5C 77.1939,117.965 74.8605,116.798 72.5,116C 71.0632,118.217 69.3965,120.217 67.5,122C 68.1301,123.31 69.1301,124.144 70.5,124.5C 70.9731,125.906 71.9731,126.573 73.5,126.5C 73.5,127.167 73.8333,127.5 74.5,127.5C 74.631,128.239 74.4643,128.906 74,129.5C 73.3292,128.748 72.4959,128.414 71.5,128.5C 68.7139,126.887 66.0472,125.054 63.5,123C 61.3024,119.977 58.969,117.144 56.5,114.5C 56.573,112.973 55.9063,111.973 54.5,111.5C 54.5,111.167 54.5,110.833 54.5,110.5C 54.5,109.167 55.1667,108.5 56.5,108.5C 57.7765,110.95 59.2765,113.283 61,115.5C 61.7175,116.451 62.5509,116.617 63.5,116C 65.1884,114.312 66.8551,112.645 68.5,111C 67.2732,108.702 65.9399,106.535 64.5,104.5C 64.573,102.973 63.9063,101.973 62.5,101.5C 62.5,101.167 62.5,100.833 62.5,100.5C 62.1667,99.1667 61.8333,97.8333 61.5,96.5C 62.3382,96.1583 62.6716,95.4916 62.5,94.5C 64.4736,99.7693 67.4736,104.436 71.5,108.5C 73.6708,106.828 75.6708,104.995 77.5,103C 76.3679,101.235 75.3679,99.4021 74.5,97.5C 74.2451,95.0326 73.2451,93.0326 71.5,91.5C 71.5,90.5 71.5,89.5 71.5,88.5C 71.5,87.1667 71.5,85.8333 71.5,84.5C 72.5983,83.3991 72.765,82.0657 72,80.5C 68.6064,81.4558 65.1064,81.7892 61.5,81.5C 61.1936,78.6146 61.5269,75.9479 62.5,73.5C 62.5,75.5 62.5,77.5 62.5,79.5C 65.1667,79.5 67.8333,79.5 70.5,79.5C 70.933,76.8344 71.433,74.1677 72,71.5C 72.3826,70.944 72.8826,70.6107 73.5,70.5 Z"/></g>
<g><path style="opacity:1" fill="#80add7" d="M 134.5,101.5 C 135.906,101.973 136.573,102.973 136.5,104.5C 135.094,104.027 134.427,103.027 134.5,101.5 Z"/></g>
<g><path style="opacity:1" fill="#a1c3e1" d="M 62.5,101.5 C 63.9063,101.973 64.573,102.973 64.5,104.5C 63.0937,104.027 62.427,103.027 62.5,101.5 Z"/></g>
<g><path style="opacity:1" fill="#81b0d7" d="M 109.5,102.5 C 115.227,104.454 120.06,107.787 124,112.5C 124.749,113.635 124.583,114.635 123.5,115.5C 121.868,116.297 120.368,117.297 119,118.5C 117.357,117.685 115.857,116.685 114.5,115.5C 112.513,114.836 110.846,113.669 109.5,112C 107.567,111.749 105.734,111.249 104,110.5C 103.503,107.854 103.336,105.187 103.5,102.5C 105.5,102.5 107.5,102.5 109.5,102.5 Z"/></g>
<g><path style="opacity:1" fill="#aecbe5" d="M 39.5,98.5 C 41.554,101.008 42.554,104.008 42.5,107.5C 41.0541,104.746 40.0541,101.746 39.5,98.5 Z"/></g>
<g><path style="opacity:1" fill="#82b0d8" d="M 160.5,102.5 C 163.538,108.412 165.205,114.746 165.5,121.5C 165.698,129.534 165.365,137.534 164.5,145.5C 163.768,150.621 161.768,154.954 158.5,158.5C 156.181,158.008 154.181,157.008 152.5,155.5C 153.5,151.5 154.5,147.5 155.5,143.5C 156.222,143.082 156.722,142.416 157,141.5C 157.667,134.167 157.667,126.833 157,119.5C 156.768,118.263 156.268,117.263 155.5,116.5C 154.653,112.777 153.653,109.111 152.5,105.5C 154.692,103.41 157.359,102.41 160.5,102.5 Z"/></g>
<g><path style="opacity:1" fill="#74a5d2" d="M 27.5,101.5 C 29.0652,103.509 30.0652,105.843 30.5,108.5C 28.1663,106.824 27.1663,104.491 27.5,101.5 Z"/></g>
<g><path style="opacity:1" fill="#a0c3e1" d="M 49.5,101.5 C 49.8333,101.5 50.1667,101.5 50.5,101.5C 51.3627,103.421 52.0293,105.421 52.5,107.5C 50.7549,105.967 49.7549,103.967 49.5,101.5 Z"/></g>
<g><path style="opacity:1" fill="#8ab4da" d="M 80.5,107.5 C 82.1284,106.147 83.4617,106.481 84.5,108.5C 83.1667,108.167 81.8333,107.833 80.5,107.5 Z"/></g>
<g><path style="opacity:1" fill="#699cce" d="M 53.5,103.5 C 55.2503,104.659 56.2503,106.326 56.5,108.5C 55.1667,108.5 54.5,109.167 54.5,110.5C 53.5987,109.71 52.9321,108.71 52.5,107.5C 53.3764,107.631 54.0431,107.298 54.5,106.5C 53.8728,105.583 53.5394,104.583 53.5,103.5 Z"/></g>
<g><path style="opacity:1" fill="#82b0d8" d="M 136.5,107.5 C 136.833,108.833 137.167,110.167 137.5,111.5C 140.357,116.408 142.024,121.742 142.5,127.5C 139.167,127.5 135.833,127.5 132.5,127.5C 132.737,123.727 132.237,120.06 131,116.5C 124.584,111.591 125.084,107.591 132.5,104.5C 133.852,105.524 135.185,106.524 136.5,107.5 Z"/></g>
<g><path style="opacity:1" fill="#f6f9fc" d="M 80.5,107.5 C 81.8333,107.833 83.1667,108.167 84.5,108.5C 86.1815,110.008 88.1815,111.008 90.5,111.5C 91.6354,113.213 93.302,113.88 95.5,113.5C 96.5676,114.434 97.901,114.768 99.5,114.5C 99.5,116.833 99.5,119.167 99.5,121.5C 97.5,121.5 95.5,121.5 93.5,121.5C 90.8333,121.167 88.1667,120.833 85.5,120.5C 82.4756,118.987 79.8089,116.987 77.5,114.5C 77.7036,112.315 78.3702,110.315 79.5,108.5C 79.5,107.833 79.8333,107.5 80.5,107.5 Z"/></g>
<g><path style="opacity:1" fill="#a7c6e2" d="M 79.5,108.5 C 78.3702,110.315 77.7036,112.315 77.5,114.5C 76.5028,114.53 75.8361,114.03 75.5,113C 76.3147,111.02 77.648,109.52 79.5,108.5 Z"/></g>
<g><path style="opacity:1" fill="#82b0d8" d="M 145.5,151.5 C 144.167,151.167 142.833,150.833 141.5,150.5C 143.984,143.411 145.317,136.077 145.5,128.5C 145.333,125.833 145.167,123.167 145,120.5C 144.078,117.009 142.911,113.675 141.5,110.5C 142.959,110.567 144.292,110.234 145.5,109.5C 147.117,108.962 148.784,108.629 150.5,108.5C 151.359,112.562 152.526,116.562 154,120.5C 155.23,131.208 153.897,141.541 150,151.5C 148.586,152.413 147.086,152.413 145.5,151.5 Z"/></g>
<g><path style="opacity:1" fill="#a7c7e3" d="M 54.5,111.5 C 55.9063,111.973 56.573,112.973 56.5,114.5C 55.0937,114.027 54.427,113.027 54.5,111.5 Z"/></g>
<g><path style="opacity:1" fill="#9bbfdf" d="M 90.5,111.5 C 92.403,111.796 94.0697,112.463 95.5,113.5C 93.302,113.88 91.6354,113.213 90.5,111.5 Z"/></g>
<g><path style="opacity:1" fill="#b5d0e8" d="M 95.5,113.5 C 97.1667,113.5 98.8333,113.5 100.5,113.5C 100.5,116.5 100.5,119.5 100.5,122.5C 98.1667,122.5 95.8333,122.5 93.5,122.5C 93.5,122.167 93.5,121.833 93.5,121.5C 95.5,121.5 97.5,121.5 99.5,121.5C 99.5,119.167 99.5,116.833 99.5,114.5C 97.901,114.768 96.5676,114.434 95.5,113.5 Z"/></g>
<g><path style="opacity:1" fill="#2975ba" d="M 131.5,99.5 C 132.5,100.167 133.5,100.833 134.5,101.5C 134.427,103.027 135.094,104.027 136.5,104.5C 137.209,105.404 138.209,105.737 139.5,105.5C 139.631,106.376 139.298,107.043 138.5,107.5C 137.571,106.45 136.905,106.45 136.5,107.5C 135.185,106.524 133.852,105.524 132.5,104.5C 125.084,107.591 124.584,111.591 131,116.5C 132.237,120.06 132.737,123.727 132.5,127.5C 135.833,127.5 139.167,127.5 142.5,127.5C 142.024,121.742 140.357,116.408 137.5,111.5C 138.458,111.953 139.292,112.619 140,113.5C 140.232,112.263 140.732,111.263 141.5,110.5C 142.911,113.675 144.078,117.009 145,120.5C 145.167,123.167 145.333,125.833 145.5,128.5C 145.317,136.077 143.984,143.411 141.5,150.5C 140.596,149.791 140.263,148.791 140.5,147.5C 140.5,146.167 140.5,144.833 140.5,143.5C 141.378,140.239 142.044,136.906 142.5,133.5C 139.375,132.521 136.042,132.187 132.5,132.5C 132.5,133.833 132.5,135.167 132.5,136.5C 132.5,137.167 132.5,137.833 132.5,138.5C 131.883,138.611 131.383,138.944 131,139.5C 130.506,137.866 130.34,136.199 130.5,134.5C 130.91,129.333 130.243,124.333 128.5,119.5C 126.383,118.531 124.383,118.864 122.5,120.5C 121.391,120.557 120.391,120.89 119.5,121.5C 116.908,120.34 115.241,118.34 114.5,115.5C 115.857,116.685 117.357,117.685 119,118.5C 120.368,117.297 121.868,116.297 123.5,115.5C 124.583,114.635 124.749,113.635 124,112.5C 120.06,107.787 115.227,104.454 109.5,102.5C 110.492,102.672 111.158,102.338 111.5,101.5C 111.833,101.5 112.167,101.5 112.5,101.5C 113.833,101.833 115.167,102.167 116.5,102.5C 116.973,103.906 117.973,104.573 119.5,104.5C 120.261,105.391 121.261,106.058 122.5,106.5C 123.945,104.606 125.612,102.94 127.5,101.5C 128.467,100.194 129.801,99.5271 131.5,99.5 Z"/></g>
<g><path style="opacity:1" fill="#99bedf" d="M 116.5,102.5 C 118.027,102.427 119.027,103.094 119.5,104.5C 117.973,104.573 116.973,103.906 116.5,102.5 Z"/></g>
<g><path style="opacity:1" fill="#4c8cc5" d="M 100.5,113.5 C 101.479,116.625 101.813,119.958 101.5,123.5C 98.6146,123.806 95.9479,123.473 93.5,122.5C 95.8333,122.5 98.1667,122.5 100.5,122.5C 100.5,119.5 100.5,116.5 100.5,113.5 Z"/></g>
<g><path style="opacity:1" fill="#83b0d7" d="M 31.5,112.5 C 33.2451,114.033 34.2451,116.033 34.5,118.5C 32.7549,116.967 31.7549,114.967 31.5,112.5 Z"/></g>
<g><path style="opacity:1" fill="#f4f8fb" d="M 79.5,119.5 C 79.9731,120.906 80.9731,121.573 82.5,121.5C 84.8478,123.097 87.5145,124.097 90.5,124.5C 91.1667,124.5 91.8333,124.5 92.5,124.5C 94.5145,125.924 96.8478,126.59 99.5,126.5C 99.5,129.167 99.5,131.833 99.5,134.5C 97.1667,134.5 94.8333,134.5 92.5,134.5C 92.1667,134.5 91.8333,134.5 91.5,134.5C 89.9724,133.691 88.3057,133.024 86.5,132.5C 84.3155,130.415 81.6489,129.415 78.5,129.5C 77.1667,128.833 75.8333,128.167 74.5,127.5C 73.8333,127.5 73.5,127.167 73.5,126.5C 73.0269,125.094 72.0269,124.427 70.5,124.5C 69.1301,124.144 68.1301,123.31 67.5,122C 69.3965,120.217 71.0632,118.217 72.5,116C 74.8605,116.798 77.1939,117.965 79.5,119.5 Z"/></g>
<g><path style="opacity:1" fill="#84b0d8" d="M 79.5,119.5 C 81.0269,119.427 82.0269,120.094 82.5,121.5C 80.9731,121.573 79.9731,120.906 79.5,119.5 Z"/></g>
<g><path style="opacity:1" fill="#edf3f9" d="M 130.5,134.5 C 129.076,136.515 128.41,138.848 128.5,141.5C 128.265,142.097 127.765,142.43 127,142.5C 124.953,141.391 122.787,140.724 120.5,140.5C 121.601,134.775 121.601,129.108 120.5,123.5C 121.167,122.5 121.833,121.5 122.5,120.5C 124.383,118.864 126.383,118.531 128.5,119.5C 130.243,124.333 130.91,129.333 130.5,134.5 Z"/></g>
<g><path style="opacity:1" fill="#a2c3e1" d="M 45.5,119.5 C 46.9063,119.973 47.573,120.973 47.5,122.5C 46.0937,122.027 45.427,121.027 45.5,119.5 Z"/></g>
<g><path style="opacity:1" fill="#5791c8" d="M 85.5,120.5 C 88.1667,120.833 90.8333,121.167 93.5,121.5C 93.5,121.833 93.5,122.167 93.5,122.5C 92.1266,122.343 90.7932,122.51 89.5,123C 90.056,123.383 90.3893,123.883 90.5,124.5C 87.5145,124.097 84.8478,123.097 82.5,121.5C 83.791,121.737 84.791,121.404 85.5,120.5 Z"/></g>
<g><path style="opacity:1" fill="#8bb5da" d="M 122.5,120.5 C 121.833,121.5 121.167,122.5 120.5,123.5C 119.662,123.158 119.328,122.492 119.5,121.5C 120.391,120.89 121.391,120.557 122.5,120.5 Z"/></g>
<g><path style="opacity:1" fill="#6fa3d1" d="M 36.5,122.5 C 37.9063,122.973 38.573,123.973 38.5,125.5C 37.0937,125.027 36.427,124.027 36.5,122.5 Z"/></g>
<g><path style="opacity:1" fill="#a2c3e1" d="M 70.5,124.5 C 72.0269,124.427 73.0269,125.094 73.5,126.5C 71.9731,126.573 70.9731,125.906 70.5,124.5 Z"/></g>
<g><path style="opacity:1" fill="#468ac5" d="M 155.5,116.5 C 156.268,117.263 156.768,118.263 157,119.5C 157.667,126.833 157.667,134.167 157,141.5C 156.722,142.416 156.222,143.082 155.5,143.5C 156.833,134.5 156.833,125.5 155.5,116.5 Z"/></g>
<g><path style="opacity:1" fill="#99bedf" d="M 92.5,124.5 C 95.1667,124.833 97.8333,125.167 100.5,125.5C 100.5,128.833 100.5,132.167 100.5,135.5C 97.6146,135.806 94.9479,135.473 92.5,134.5C 94.8333,134.5 97.1667,134.5 99.5,134.5C 99.5,131.833 99.5,129.167 99.5,126.5C 96.8478,126.59 94.5145,125.924 92.5,124.5 Z"/></g>
<g><path style="opacity:1" fill="#5896ca" d="M 165.5,121.5 C 166.655,128.321 166.821,135.321 166,142.5C 165.768,143.737 165.268,144.737 164.5,145.5C 165.365,137.534 165.698,129.534 165.5,121.5 Z"/></g>
<g><path style="opacity:1" fill="#4989c4" d="M 50.5,128.5 C 49.4154,130.587 47.7488,131.92 45.5,132.5C 46.5846,130.413 48.2512,129.08 50.5,128.5 Z"/></g>
<g><path style="opacity:1" fill="#b8d1e8" d="M 78.5,129.5 C 81.6489,129.415 84.3155,130.415 86.5,132.5C 83.3511,132.585 80.6845,131.585 78.5,129.5 Z"/></g>
<g><path style="opacity:1" fill="#4988c4" d="M 74.5,127.5 C 75.8333,128.167 77.1667,128.833 78.5,129.5C 80.6845,131.585 83.3511,132.585 86.5,132.5C 88.3057,133.024 89.9724,133.691 91.5,134.5C 90.1266,134.343 88.7932,134.51 87.5,135C 88.056,135.383 88.3893,135.883 88.5,136.5C 86.8828,135.962 85.2161,135.629 83.5,135.5C 83.0269,134.094 82.0269,133.427 80.5,133.5C 76.8876,132.757 73.8876,131.09 71.5,128.5C 72.4959,128.414 73.3292,128.748 74,129.5C 74.4643,128.906 74.631,128.239 74.5,127.5 Z"/></g>
<g><path style="opacity:1" fill="#7aabd5" d="M 142.5,133.5 C 139.5,133.5 136.5,133.5 133.5,133.5C 133.737,134.791 133.404,135.791 132.5,136.5C 132.5,135.167 132.5,133.833 132.5,132.5C 136.042,132.187 139.375,132.521 142.5,133.5 Z"/></g>
<g><path style="opacity:1" fill="#2473b9" d="M 152.5,105.5 C 153.653,109.111 154.653,112.777 155.5,116.5C 156.833,125.5 156.833,134.5 155.5,143.5C 154.5,147.5 153.5,151.5 152.5,155.5C 151.732,154.737 151.232,153.737 151,152.5C 148.765,153.98 146.932,153.647 145.5,151.5C 147.086,152.413 148.586,152.413 150,151.5C 153.897,141.541 155.23,131.208 154,120.5C 152.526,116.562 151.359,112.562 150.5,108.5C 148.784,108.629 147.117,108.962 145.5,109.5C 146.638,106.733 148.472,106.066 151,107.5C 151.278,106.584 151.778,105.918 152.5,105.5 Z"/></g>
<g><path style="opacity:1" fill="#9fc2e0" d="M 62.5,133.5 C 64.0269,133.427 65.0269,134.094 65.5,135.5C 63.9731,135.573 62.9731,134.906 62.5,133.5 Z"/></g>
<g><path style="opacity:1" fill="#a9c8e4" d="M 80.5,133.5 C 82.0269,133.427 83.0269,134.094 83.5,135.5C 81.9731,135.573 80.9731,134.906 80.5,133.5 Z"/></g>
<g><path style="opacity:1" fill="#f2f6fa" d="M 142.5,133.5 C 142.044,136.906 141.378,140.239 140.5,143.5C 138.935,145.509 137.935,147.843 137.5,150.5C 136.094,150.973 135.427,151.973 135.5,153.5C 134.288,154.23 133.288,155.23 132.5,156.5C 130.739,155.965 129.406,154.965 128.5,153.5C 127.859,152.518 127.193,151.518 126.5,150.5C 127.127,149.583 127.461,148.583 127.5,147.5C 128.857,146.41 129.857,145.076 130.5,143.5C 131.537,142.07 132.204,140.403 132.5,138.5C 132.5,137.833 132.5,137.167 132.5,136.5C 133.404,135.791 133.737,134.791 133.5,133.5C 136.5,133.5 139.5,133.5 142.5,133.5 Z"/></g>
<g><path style="opacity:1" fill="#b3cee6" d="M 58.5,133.5 C 58.8333,134.167 59.1667,134.833 59.5,135.5C 57.4862,135.392 55.8195,136.058 54.5,137.5C 54.8333,135.167 56.1667,133.833 58.5,133.5 Z"/></g>
<g><path style="opacity:1" fill="#f3f7fb" d="M 59.5,135.5 C 71.2593,144.423 84.5926,149.423 99.5,150.5C 99.5,153.167 99.5,155.833 99.5,158.5C 97.1667,158.5 94.8333,158.5 92.5,158.5C 88.3705,158.466 84.3705,157.799 80.5,156.5C 79.4863,155.326 78.153,154.66 76.5,154.5C 76.1667,154.5 75.8333,154.5 75.5,154.5C 73.9674,152.755 71.9674,151.755 69.5,151.5C 62.7715,149.143 57.1048,145.31 52.5,140C 52.6387,138.699 53.3054,137.866 54.5,137.5C 55.8195,136.058 57.4862,135.392 59.5,135.5 Z"/></g>
<g><path style="opacity:1" fill="#2a77bb" d="M 163.5,100.5 C 171.431,119.859 171.431,139.193 163.5,158.5C 164.286,160.041 165.286,161.374 166.5,162.5C 163.451,161.792 160.785,160.459 158.5,158.5C 161.768,154.954 163.768,150.621 164.5,145.5C 165.268,144.737 165.768,143.737 166,142.5C 166.821,135.321 166.655,128.321 165.5,121.5C 165.205,114.746 163.538,108.412 160.5,102.5C 161.222,101.449 162.222,100.782 163.5,100.5 Z"/></g>
<g><path style="opacity:1" fill="#4585c2" d="M 57.5,129.5 C 59.1667,130.833 60.8333,132.167 62.5,133.5C 62.9731,134.906 63.9731,135.573 65.5,135.5C 66.9649,136.737 68.6316,137.737 70.5,138.5C 70.9731,139.906 71.9731,140.573 73.5,140.5C 76.8333,141.833 80.1667,143.167 83.5,144.5C 86.2727,145.657 89.2727,146.324 92.5,146.5C 94.8333,146.5 97.1667,146.5 99.5,146.5C 99.8333,146.5 100.167,146.5 100.5,146.5C 100.5,147.833 100.5,149.167 100.5,150.5C 100.167,150.5 99.8333,150.5 99.5,150.5C 84.5926,149.423 71.2593,144.423 59.5,135.5C 59.1667,134.833 58.8333,134.167 58.5,133.5C 58.1667,132.167 57.8333,130.833 57.5,129.5 Z"/></g>
<g><path style="opacity:1" fill="#9cc0e0" d="M 70.5,138.5 C 72.0269,138.427 73.0269,139.094 73.5,140.5C 71.9731,140.573 70.9731,139.906 70.5,138.5 Z"/></g>
<g><path style="opacity:1" fill="#639acd" d="M 130.5,134.5 C 130.34,136.199 130.506,137.866 131,139.5C 131.383,138.944 131.883,138.611 132.5,138.5C 132.204,140.403 131.537,142.07 130.5,143.5C 130.869,141.007 130.203,140.34 128.5,141.5C 128.41,138.848 129.076,136.515 130.5,134.5 Z"/></g>
<g><path style="opacity:1" fill="#b1cee6" d="M 94.5,137.5 C 96.5,137.5 98.5,137.5 100.5,137.5C 100.5,140.5 100.5,143.5 100.5,146.5C 100.167,146.5 99.8333,146.5 99.5,146.5C 99.5,143.833 99.5,141.167 99.5,138.5C 97.5853,138.784 95.9187,138.451 94.5,137.5 Z"/></g>
<g><path style="opacity:1" fill="#f5f9fc" d="M 119.5,142.5 C 120.659,144.25 122.326,145.25 124.5,145.5C 124.567,146.959 124.234,148.292 123.5,149.5C 121.116,151.885 118.45,153.885 115.5,155.5C 113.847,155.66 112.514,156.326 111.5,157.5C 109.167,157.5 106.833,157.5 104.5,157.5C 104.5,155.167 104.5,152.833 104.5,150.5C 108.036,149.399 111.369,147.732 114.5,145.5C 116.354,144.759 118.021,143.759 119.5,142.5 Z"/></g>
<g><path style="opacity:1" fill="#bed5ea" d="M 83.5,144.5 C 86.1873,144.336 88.854,144.503 91.5,145C 92.056,145.383 92.3893,145.883 92.5,146.5C 89.2727,146.324 86.2727,145.657 83.5,144.5 Z"/></g>
<g><path style="opacity:1" fill="#a9c7e3" d="M 119.5,142.5 C 118.021,143.759 116.354,144.759 114.5,145.5C 115.431,143.978 116.598,142.645 118,141.5C 118.765,141.57 119.265,141.903 119.5,142.5 Z"/></g>
<g><path style="opacity:1" fill="#5691c8" d="M 124.5,145.5 C 125.778,145.782 126.778,146.449 127.5,147.5C 127.461,148.583 127.127,149.583 126.5,150.5C 127.193,151.518 127.859,152.518 128.5,153.5C 126.52,152.526 124.853,151.193 123.5,149.5C 124.234,148.292 124.567,146.959 124.5,145.5 Z"/></g>
<g><path style="opacity:1" fill="#659cce" d="M 140.5,143.5 C 140.5,144.833 140.5,146.167 140.5,147.5C 139.728,148.694 138.728,149.694 137.5,150.5C 137.935,147.843 138.935,145.509 140.5,143.5 Z"/></g>
<g><path style="opacity:1" fill="#2c75bb" d="M 123.5,149.5 C 124.853,151.193 126.52,152.526 128.5,153.5C 129.406,154.965 130.739,155.965 132.5,156.5C 133.288,155.23 134.288,154.23 135.5,153.5C 135.5,154.833 136.167,155.5 137.5,155.5C 134.833,158.833 131.833,161.833 128.5,164.5C 126.302,164.591 125.969,163.925 127.5,162.5C 128.194,159.419 126.861,157.086 123.5,155.5C 121.257,154.142 119.591,154.808 118.5,157.5C 117.833,157.5 117.167,157.5 116.5,157.5C 115.662,157.158 115.328,156.492 115.5,155.5C 118.45,153.885 121.116,151.885 123.5,149.5 Z"/></g>
<g><path style="opacity:1" fill="#aecbe5" d="M 103.5,150.5 C 103.833,150.5 104.167,150.5 104.5,150.5C 104.5,152.833 104.5,155.167 104.5,157.5C 106.833,157.5 109.167,157.5 111.5,157.5C 109.052,158.473 106.385,158.806 103.5,158.5C 103.5,155.833 103.5,153.167 103.5,150.5 Z"/></g>
<g><path style="opacity:1" fill="#7facd6" d="M 137.5,150.5 C 137.573,152.027 136.906,153.027 135.5,153.5C 135.427,151.973 136.094,150.973 137.5,150.5 Z"/></g>
<g><path style="opacity:1" fill="#97bdde" d="M 69.5,151.5 C 71.9674,151.755 73.9674,152.755 75.5,154.5C 73.0326,154.245 71.0326,153.245 69.5,151.5 Z"/></g>
<g><path style="opacity:1" fill="#6098cc" d="M 76.5,154.5 C 78.153,154.66 79.4863,155.326 80.5,156.5C 78.6203,156.771 77.287,156.104 76.5,154.5 Z"/></g>
<g><path style="opacity:1" fill="#a7c6e3" d="M 123.5,155.5 C 121.833,156.167 120.167,156.833 118.5,157.5C 119.591,154.808 121.257,154.142 123.5,155.5 Z"/></g>
<g><path style="opacity:1" fill="#5f97cb" d="M 115.5,155.5 C 115.328,156.492 115.662,157.158 116.5,157.5C 116.167,158.5 115.5,159.167 114.5,159.5C 114.179,157.952 113.179,157.285 111.5,157.5C 112.514,156.326 113.847,155.66 115.5,155.5 Z"/></g>
<g><path style="opacity:1" fill="#f7f9fc" d="M 123.5,155.5 C 124.957,157.628 125.957,159.962 126.5,162.5C 120.029,167.397 112.695,170.063 104.5,170.5C 104.5,167.833 104.5,165.167 104.5,162.5C 105.791,162.737 106.791,162.404 107.5,161.5C 109.701,160.434 112.035,159.767 114.5,159.5C 115.5,159.167 116.167,158.5 116.5,157.5C 117.167,157.5 117.833,157.5 118.5,157.5C 120.167,156.833 121.833,156.167 123.5,155.5 Z"/></g>
<g><path style="opacity:1" fill="#a8c7e3" d="M 123.5,155.5 C 126.861,157.086 128.194,159.419 127.5,162.5C 127.167,162.5 126.833,162.5 126.5,162.5C 125.957,159.962 124.957,157.628 123.5,155.5 Z"/></g>
<g><path style="opacity:1" fill="#f2f7fb" d="M 137.5,155.5 C 140.676,156.34 143.342,158.007 145.5,160.5C 140.028,167.57 133.362,173.236 125.5,177.5C 121.851,178.267 118.518,179.6 115.5,181.5C 111.534,182.162 107.534,182.495 103.5,182.5C 103.264,179.391 103.597,176.391 104.5,173.5C 105.5,173.5 106.5,173.5 107.5,173.5C 115.641,172.924 122.641,169.924 128.5,164.5C 131.833,161.833 134.833,158.833 137.5,155.5 Z"/></g>
<g><path style="opacity:1" fill="#8db6db" d="M 99.5,150.5 C 99.8333,150.5 100.167,150.5 100.5,150.5C 100.5,153.5 100.5,156.5 100.5,159.5C 97.6146,159.806 94.9479,159.473 92.5,158.5C 94.8333,158.5 97.1667,158.5 99.5,158.5C 99.5,155.833 99.5,153.167 99.5,150.5 Z"/></g>
<g><path style="opacity:1" fill="#aecce5" d="M 107.5,161.5 C 106.791,162.404 105.791,162.737 104.5,162.5C 104.5,165.167 104.5,167.833 104.5,170.5C 103.523,167.713 103.19,164.713 103.5,161.5C 104.833,161.5 106.167,161.5 107.5,161.5 Z"/></g>
<g><path style="opacity:1" fill="#82b1d8" d="M 153.5,164.5 C 153.5,165.167 153.833,165.5 154.5,165.5C 152.265,171.259 148.599,176.092 143.5,180C 131.989,189.577 118.655,194.411 103.5,194.5C 103.5,191.5 103.5,188.5 103.5,185.5C 121.481,184.676 136.147,177.176 147.5,163C 149.689,162.678 151.689,163.178 153.5,164.5 Z"/></g>
<g><path style="opacity:1" fill="#4b89c5" d="M 103.5,150.5 C 103.5,153.167 103.5,155.833 103.5,158.5C 106.385,158.806 109.052,158.473 111.5,157.5C 113.179,157.285 114.179,157.952 114.5,159.5C 112.035,159.767 109.701,160.434 107.5,161.5C 106.167,161.5 104.833,161.5 103.5,161.5C 103.19,164.713 103.523,167.713 104.5,170.5C 112.695,170.063 120.029,167.397 126.5,162.5C 126.833,162.5 127.167,162.5 127.5,162.5C 125.969,163.925 126.302,164.591 128.5,164.5C 122.641,169.924 115.641,172.924 107.5,173.5C 107.918,172.778 108.584,172.278 109.5,172C 107.19,171.503 104.857,171.337 102.5,171.5C 102.175,164.313 102.509,157.313 103.5,150.5 Z"/></g>
<g><path style="opacity:1" fill="#82b1d8" d="M 121.5,204.5 C 115.87,205.292 110.203,205.625 104.5,205.5C 104.5,203.167 104.5,200.833 104.5,198.5C 106.735,198.795 108.735,198.461 110.5,197.5C 128.085,194.286 142.918,185.952 155,172.5C 155.513,171.473 156.013,170.473 156.5,169.5C 157.251,168.427 158.251,168.26 159.5,169C 161.466,170.46 163.132,172.127 164.5,174C 153.66,188.994 139.327,199.16 121.5,204.5 Z"/></g>
<g><path style="opacity:1" fill="#377ebf" d="M 145.5,160.5 C 145.369,161.239 145.536,161.906 146,162.5C 149.178,160.833 151.678,161.5 153.5,164.5C 151.689,163.178 149.689,162.678 147.5,163C 136.147,177.176 121.481,184.676 103.5,185.5C 103.5,188.5 103.5,191.5 103.5,194.5C 102.835,191.183 102.501,187.683 102.5,184C 102.512,180.098 103.179,176.598 104.5,173.5C 103.597,176.391 103.264,179.391 103.5,182.5C 107.534,182.495 111.534,182.162 115.5,181.5C 119.358,181.23 122.691,179.897 125.5,177.5C 133.362,173.236 140.028,167.57 145.5,160.5 Z"/></g>
<g><path style="opacity:1" fill="#78a7d4" d="M 125.5,177.5 C 122.691,179.897 119.358,181.23 115.5,181.5C 118.518,179.6 121.851,178.267 125.5,177.5 Z"/></g>
<g><path style="opacity:1" fill="#2574ba" d="M 154.5,165.5 C 155.167,166.833 155.833,168.167 156.5,169.5C 156.013,170.473 155.513,171.473 155,172.5C 142.918,185.952 128.085,194.286 110.5,197.5C 108.167,197.5 105.833,197.5 103.5,197.5C 103.5,196.5 103.5,195.5 103.5,194.5C 118.655,194.411 131.989,189.577 143.5,180C 148.599,176.092 152.265,171.259 154.5,165.5 Z"/></g>
<g><path style="opacity:1" fill="#5b97cb" d="M 103.5,197.5 C 105.833,197.5 108.167,197.5 110.5,197.5C 108.735,198.461 106.735,198.795 104.5,198.5C 104.5,200.833 104.5,203.167 104.5,205.5C 110.203,205.625 115.87,205.292 121.5,204.5C 120.737,205.268 119.737,205.768 118.5,206C 113.511,206.499 108.511,206.666 103.5,206.5C 103.5,203.5 103.5,200.5 103.5,197.5 Z"/></g>
</svg>
