<?xml version="1.0" encoding="UTF-8"?>
<!DOCTYPE svg PUBLIC "-//W3C//DTD SVG 1.1//EN" "http://www.w3.org/Graphics/SVG/1.1/DTD/svg11.dtd">
<svg xmlns="http://www.w3.org/2000/svg" version="1.1" width="158px" height="111px" style="shape-rendering:geometricPrecision; text-rendering:geometricPrecision; image-rendering:optimizeQuality; fill-rule:evenodd; clip-rule:evenodd" xmlns:xlink="http://www.w3.org/1999/xlink">
<g><path style="opacity:1" fill="#fcfdfe" d="M -0.5,-0.5 C 52.1667,-0.5 104.833,-0.5 157.5,-0.5C 157.5,36.5 157.5,73.5 157.5,110.5C 104.833,110.5 52.1667,110.5 -0.5,110.5C -0.5,73.5 -0.5,36.5 -0.5,-0.5 Z"/></g>
<g><path style="opacity:1" fill="#bcdce5" d="M 146.5,24.5 C 135.167,24.5 123.833,24.5 112.5,24.5C 112.5,29.1667 112.5,33.8333 112.5,38.5C 111.513,33.6946 111.179,28.6946 111.5,23.5C 123.345,23.1717 135.012,23.5051 146.5,24.5 Z"/></g>
<g><path style="opacity:1" fill="#60adc2" d="M 88.5,25.5 C 88.5,25.1667 88.5,24.8333 88.5,24.5C 93.1667,24.5 97.8333,24.5 102.5,24.5C 102.821,29.6946 102.487,34.6946 101.5,39.5C 96.9677,39.8182 92.6344,39.4849 88.5,38.5C 92.8333,38.5 97.1667,38.5 101.5,38.5C 101.5,34.1667 101.5,29.8333 101.5,25.5C 97.1667,25.5 92.8333,25.5 88.5,25.5 Z"/></g>
<g><path style="opacity:1" fill="#dfeef2" d="M 88.5,24.5 C 93.6503,23.3493 98.9836,23.1826 104.5,24C 106.261,29.9982 105.594,35.6649 102.5,41C 97.1771,41.4994 91.8437,41.666 86.5,41.5C 86.5,40.5 86.5,39.5 86.5,38.5C 88.8922,39.7128 91.5589,40.3795 94.5,40.5C 97.0254,40.4966 99.3587,40.1633 101.5,39.5C 102.487,34.6946 102.821,29.6946 102.5,24.5C 97.8333,24.5 93.1667,24.5 88.5,24.5 Z"/></g>
<g><path style="opacity:1" fill="#54a6bd" d="M 146.5,24.5 C 146.5,29.5 146.5,34.5 146.5,39.5C 134.988,39.8281 123.654,39.4948 112.5,38.5C 112.5,33.8333 112.5,29.1667 112.5,24.5C 123.833,24.5 135.167,24.5 146.5,24.5 Z"/></g>
<g><path style="opacity:1" fill="#037e9f" d="M 14.5,25.5 C 18.8333,25.5 23.1667,25.5 27.5,25.5C 27.5,47.5 27.5,69.5 27.5,91.5C 23.1667,91.5 18.8333,91.5 14.5,91.5C 14.5,69.5 14.5,47.5 14.5,25.5 Z"/></g>
<g><path style="opacity:1" fill="#0e81a2" d="M 88.5,25.5 C 92.8333,25.5 97.1667,25.5 101.5,25.5C 101.5,29.8333 101.5,34.1667 101.5,38.5C 97.1667,38.5 92.8333,38.5 88.5,38.5C 88.5,34.1667 88.5,29.8333 88.5,25.5 Z"/></g>
<g><path style="opacity:1" fill="#037e9f" d="M 113.5,25.5 C 124.167,25.5 134.833,25.5 145.5,25.5C 145.5,29.5 145.5,33.5 145.5,37.5C 134.833,37.5 124.167,37.5 113.5,37.5C 113.5,33.5 113.5,29.5 113.5,25.5 Z"/></g>
<g><path style="opacity:1" fill="#77b9cc" d="M 38.5,24.5 C 39.1667,24.5 39.8333,24.5 40.5,24.5C 40.5,24.8333 40.5,25.1667 40.5,25.5C 39.5037,40.9911 39.1704,56.6578 39.5,72.5C 43.8333,72.5 48.1667,72.5 52.5,72.5C 48.03,73.4861 43.3633,73.8195 38.5,73.5C 38.5,57.1667 38.5,40.8333 38.5,24.5 Z"/></g>
<g><path style="opacity:1" fill="#a8d2dd" d="M 38.5,24.5 C 43.6405,23.5119 48.9738,23.1786 54.5,23.5C 54.5,40.5 54.5,57.5 54.5,74.5C 48.9738,74.8214 43.6405,74.4881 38.5,73.5C 43.3633,73.8195 48.03,73.4861 52.5,72.5C 53.4964,56.6754 53.8297,40.6754 53.5,24.5C 49.1667,24.5 44.8333,24.5 40.5,24.5C 39.8333,24.5 39.1667,24.5 38.5,24.5 Z"/></g>
<g><path style="opacity:1" fill="#97c9d7" d="M 77.5,92.5 C 72.6946,93.4872 67.6946,93.8205 62.5,93.5C 62.5,70.1667 62.5,46.8333 62.5,23.5C 67.8333,23.5 73.1667,23.5 78.5,23.5C 78.8308,46.6727 78.4975,69.6727 77.5,92.5 Z"/></g>
<g><path style="opacity:1" fill="#3796b2" d="M 77.5,92.5 C 72.9014,92.8 68.4014,92.4667 64,91.5C 63.3333,69.5 63.3333,47.5 64,25.5C 68.4014,24.5333 72.9014,24.2 77.5,24.5C 77.5,47.1667 77.5,69.8333 77.5,92.5 Z"/></g>
<g><path style="opacity:1" fill="#037d9f" d="M 65.5,25.5 C 69.1667,25.5 72.8333,25.5 76.5,25.5C 76.5,47.5 76.5,69.5 76.5,91.5C 72.8333,91.5 69.1667,91.5 65.5,91.5C 65.5,69.5 65.5,47.5 65.5,25.5 Z"/></g>
<g><path style="opacity:1" fill="#add4df" d="M 88.5,24.5 C 88.5,24.8333 88.5,25.1667 88.5,25.5C 88.5,29.8333 88.5,34.1667 88.5,38.5C 92.6344,39.4849 96.9677,39.8182 101.5,39.5C 99.3587,40.1633 97.0254,40.4966 94.5,40.5C 91.5589,40.3795 88.8922,39.7128 86.5,38.5C 85.8969,33.3814 86.5636,28.7147 88.5,24.5 Z"/></g>
<g><path style="opacity:1" fill="#8fc5d5" d="M 28.5,24.5 C 29.8323,35.4797 30.4989,46.8131 30.5,58.5C 30.4989,70.1869 29.8323,81.5203 28.5,92.5C 28.5,69.8333 28.5,47.1667 28.5,24.5 Z"/></g>
<g><path style="opacity:1" fill="#208baa" d="M 40.5,25.5 C 44.5,25.5 48.5,25.5 52.5,25.5C 52.5,41.1667 52.5,56.8333 52.5,72.5C 48.1667,72.5 43.8333,72.5 39.5,72.5C 39.1704,56.6578 39.5037,40.9911 40.5,25.5 Z"/></g>
<g><path style="opacity:1" fill="#017d9f" d="M 41.5,26.5 C 44.8333,26.5 48.1667,26.5 51.5,26.5C 51.5,41.5 51.5,56.5 51.5,71.5C 48.1667,71.5 44.8333,71.5 41.5,71.5C 41.5,56.5 41.5,41.5 41.5,26.5 Z"/></g>
<g><path style="opacity:1" fill="#3296b1" d="M 14.5,25.5 C 18.97,24.5139 23.6367,24.1805 28.5,24.5C 28.5,47.1667 28.5,69.8333 28.5,92.5C 23.6367,92.8195 18.97,92.4861 14.5,91.5C 18.8333,91.5 23.1667,91.5 27.5,91.5C 27.5,69.5 27.5,47.5 27.5,25.5C 23.1667,25.5 18.8333,25.5 14.5,25.5 Z"/></g>
<g><path style="opacity:1" fill="#57a9bf" d="M 40.5,25.5 C 40.5,25.1667 40.5,24.8333 40.5,24.5C 44.8333,24.5 49.1667,24.5 53.5,24.5C 53.8297,40.6754 53.4964,56.6754 52.5,72.5C 52.5,56.8333 52.5,41.1667 52.5,25.5C 48.5,25.5 44.5,25.5 40.5,25.5 Z"/></g>
<g><path style="opacity:1" fill="#d5eaef" d="M 126.5,48.5 C 121.637,48.1805 116.97,48.5139 112.5,49.5C 111.504,63.6569 111.171,77.9903 111.5,92.5C 110.339,78.0058 110.172,63.3391 111,48.5C 116.266,47.1757 121.433,47.1757 126.5,48.5 Z"/></g>
<g><path style="opacity:1" fill="#11b3b5" d="M 88.5,49.5 C 92.8333,49.5 97.1667,49.5 101.5,49.5C 101.5,63.5 101.5,77.5 101.5,91.5C 97.1667,91.5 92.8333,91.5 88.5,91.5C 88.5,77.5 88.5,63.5 88.5,49.5 Z"/></g>
<g><path style="opacity:1" fill="#86c1d0" d="M 112.5,49.5 C 116.97,48.5139 121.637,48.1805 126.5,48.5C 127.833,63.1667 127.833,77.8333 126.5,92.5C 126.5,78.1667 126.5,63.8333 126.5,49.5C 121.833,49.5 117.167,49.5 112.5,49.5 Z"/></g>
<g><path style="opacity:1" fill="#78d3d4" d="M 88.5,49.5 C 92.97,48.5139 97.6367,48.1805 102.5,48.5C 103.496,62.9905 103.829,77.6572 103.5,92.5C 98.5,92.5 93.5,92.5 88.5,92.5C 88.5,92.1667 88.5,91.8333 88.5,91.5C 92.8333,91.5 97.1667,91.5 101.5,91.5C 101.5,77.5 101.5,63.5 101.5,49.5C 97.1667,49.5 92.8333,49.5 88.5,49.5 Z"/></g>
<g><path style="opacity:1" fill="#a6d2dd" d="M 112.5,49.5 C 112.5,63.8333 112.5,78.1667 112.5,92.5C 117.167,92.5 121.833,92.5 126.5,92.5C 121.5,93.8333 116.5,93.8333 111.5,92.5C 111.171,77.9903 111.504,63.6569 112.5,49.5 Z"/></g>
<g><path style="opacity:1" fill="#3d9cb5" d="M 112.5,49.5 C 117.167,49.5 121.833,49.5 126.5,49.5C 126.5,63.8333 126.5,78.1667 126.5,92.5C 121.833,92.5 117.167,92.5 112.5,92.5C 112.5,78.1667 112.5,63.8333 112.5,49.5 Z"/></g>
<g><path style="opacity:1" fill="#037e9f" d="M 113.5,50.5 C 117.5,50.5 121.5,50.5 125.5,50.5C 125.5,64.1667 125.5,77.8333 125.5,91.5C 121.5,91.5 117.5,91.5 113.5,91.5C 113.5,77.8333 113.5,64.1667 113.5,50.5 Z"/></g>
<g><path style="opacity:1" fill="#ade5e5" d="M 102.5,48.5 C 97.6367,48.1805 92.97,48.5139 88.5,49.5C 88.5,63.5 88.5,77.5 88.5,91.5C 88.5,91.8333 88.5,92.1667 88.5,92.5C 87.1693,85.5318 86.5026,78.1984 86.5,70.5C 86.6667,63.1667 86.8333,55.8333 87,48.5C 92.266,47.1757 97.4327,47.1757 102.5,48.5 Z"/></g>
</svg>
